<?xml version="1.0" standalone="no"?><!DOCTYPE svg PUBLIC "-//W3C//DTD SVG 1.1//EN" "http://www.w3.org/Graphics/SVG/1.1/DTD/svg11.dtd"><svg t="1733969103432" class="icon" viewBox="0 0 1024 1024" version="1.1" xmlns="http://www.w3.org/2000/svg" p-id="3842" width="1024" height="1024" xmlns:xlink="http://www.w3.org/1999/xlink"><path d="M0 0m121.904762 0l780.190476 0q121.904762 0 121.904762 121.904762l0 780.190476q0 121.904762-121.904762 121.904762l-780.190476 0q-121.904762 0-121.904762-121.904762l0-780.190476q0-121.904762 121.904762-121.904762Z" fill="#7169EE" p-id="3843"></path><path d="M294.302476 490.691048l252.976762-97.28C579.510857 360.984381 623.274667 341.333333 674.864762 341.333333c2.486857 0 4.973714 0.048762 7.43619 0.146286L682.666667 341.333333v0.146286c108.422095 4.193524 195.047619 95.305143 195.047619 207.09181s-86.625524 202.898286-195.047619 207.091809V755.809524H268.190476c-67.31581 0-121.904762-60.025905-121.904762-134.095238S200.874667 487.619048 268.190476 487.619048c8.97219 0 17.700571 1.072762 26.112 3.072z" fill="#FFFFFF" opacity=".5" p-id="3844"></path><path d="M475.428571 499.809524m-256 0a256 256 0 1 0 512 0 256 256 0 1 0-512 0Z" fill="#FFFFFF" p-id="3845"></path></svg>